<svg width="394" height="157" viewBox="0 0 394 157" fill="none" xmlns="http://www.w3.org/2000/svg">
<path fill-rule="evenodd" clip-rule="evenodd" d="M195.798 1.00377V0H197.798V1.00377H195.798ZM195.798 5.01887V3.01132H197.798V5.01887H195.798ZM195.798 9.03396V7.02641H197.798V9.03396H195.798ZM195.798 13.0491V11.0415H197.798V13.0491H195.798ZM195.798 17.0642V15.0566H197.798V17.0642H195.798ZM195.798 21.0792V19.0717H197.798V21.0792H195.798ZM195.798 25.0943V23.0868H197.798V25.0943H195.798ZM195.798 29.1094V27.1019H197.798V29.1094H195.798ZM195.798 33.1245V31.117H197.798V33.1245H195.798ZM195.798 37.1396V35.1321H197.798V37.1396H195.798ZM195.798 41.1547V39.1472H197.798V41.1547H195.798ZM195.798 45.1698V43.1623H197.798V45.1698H195.798ZM195.798 49.1849V47.1773H197.798V49.1849H195.798ZM195.798 53.2V51.1924H197.798V53.2H195.798ZM195.798 57.2151V55.2075H197.798V57.2151H195.798ZM195.798 61.2302V59.2226H197.798V61.2302H195.798ZM195.798 65.2453V63.2377H197.798V65.2453H195.798ZM195.798 69.2604V67.2528H197.798V69.2604H195.798ZM195.798 73.2754V71.2679H197.798V73.2754H195.798ZM195.798 77.2905V75.283H197.798V77.2905H195.798ZM195.798 81.3056V79.2981H197.798V81.3056H195.798ZM195.798 85.3207V83.3132H197.798V85.3207H195.798ZM195.798 89.3358V87.3283H197.798V89.3358H195.798ZM195.798 93.3509V91.3434H197.798V93.3509H195.798ZM195.798 97.366V95.3584H197.798V97.366H195.798ZM195.798 101.381V99.3735H197.798V101.381H195.798ZM195.798 104.392V103.389H197.798V104.392H195.798Z" fill="url(#paint0_linear_2_926)" fill-opacity="0.7"/>
<path fill-rule="evenodd" clip-rule="evenodd" d="M196.335 1.53629C196.34 1.20254 196.342 0.871567 196.342 0.543457L198.342 0.543502C198.342 0.881591 198.34 1.22182 198.335 1.56401L196.335 1.53629ZM196.201 5.55198C196.233 4.87295 196.262 4.20235 196.285 3.54056L198.284 3.60985C198.261 4.2823 198.231 4.96166 198.199 5.64654L196.201 5.55198ZM196.055 8.3862C196.07 8.11257 196.085 7.84011 196.099 7.5694L198.096 7.67525C198.082 7.94829 198.067 8.22143 198.052 8.49518C198.031 8.89411 198.01 9.29432 197.989 9.69729L195.991 9.59251C196.012 9.18915 196.034 8.78643 196.055 8.3862ZM195.807 13.6562C195.831 12.9737 195.859 12.2951 195.89 11.6214L197.888 11.7138C197.857 12.3818 197.829 13.0526 197.806 13.7258L195.807 13.6562ZM195.736 17.7433C195.734 17.0585 195.74 16.3761 195.752 15.697L197.752 15.7335C197.739 16.4 197.734 17.068 197.736 17.7368L195.736 17.7433ZM195.861 21.8485C195.819 21.1626 195.789 20.4776 195.769 19.7944L197.768 19.7349C197.788 20.3989 197.817 21.0629 197.858 21.7263L195.861 21.8485ZM196.267 25.9551C196.171 25.2713 196.091 24.5871 196.024 23.9033L198.015 23.7084C198.079 24.3664 198.156 25.023 198.248 25.6778L196.267 25.9551ZM197.035 30.0286C196.872 29.3536 196.728 28.6768 196.601 27.9989L198.567 27.6301C198.688 28.276 198.825 28.9193 198.979 29.5596L197.035 30.0286ZM198.237 34.0125C197.996 33.3568 197.777 32.6977 197.578 32.0361L199.493 31.4599C199.681 32.0849 199.888 32.7063 200.114 33.3236L198.237 34.0125ZM199.917 37.831C199.593 37.2076 199.293 36.5796 199.016 35.9477L200.847 35.1429C201.107 35.7362 201.389 36.3254 201.692 36.9098L199.917 37.831ZM202.078 41.403C201.674 40.8249 201.295 40.2411 200.939 39.6524L202.65 38.6169C202.984 39.1686 203.339 39.7158 203.718 40.2579L202.078 41.403ZM204.683 44.6676C204.208 44.1431 203.757 43.6125 203.329 43.0762L204.892 41.8282C205.294 42.332 205.718 42.831 206.166 43.3249L204.683 44.6676ZM207.65 47.5799C207.122 47.1167 206.615 46.6474 206.131 46.1722L207.531 44.7439C207.989 45.1927 208.467 45.6369 208.968 46.0759L207.65 47.5799ZM210.905 50.1484C210.331 49.7393 209.777 49.3243 209.243 48.9036L210.481 47.3329C210.989 47.7331 211.517 48.1286 212.065 48.5192L210.905 50.1484ZM214.372 52.392C213.772 52.0388 213.191 51.6803 212.628 51.3165L213.713 49.6364C214.253 49.985 214.811 50.3292 215.387 50.6687L214.372 52.392ZM218.013 54.3549C217.381 54.0432 216.767 53.7264 216.17 53.4047L217.118 51.6438C217.695 51.9541 218.288 52.2601 218.898 52.5615L218.013 54.3549ZM221.751 56.0545C221.103 55.7833 220.471 55.5075 219.854 55.2271L220.682 53.4063C221.28 53.6782 221.894 53.9461 222.523 54.2097L221.751 56.0545ZM225.568 57.5322C224.912 57.2976 224.27 57.0587 223.642 56.8157L224.364 54.9505C224.976 55.1872 225.602 55.4201 226.242 55.6492L225.568 57.5322ZM229.45 58.821C228.788 58.6174 228.139 58.41 227.502 58.1988L228.132 56.3004C228.755 56.5069 229.39 56.71 230.038 56.9094L229.45 58.821ZM232.419 59.6847C232.08 59.5915 231.744 59.4974 231.411 59.4023L231.961 57.4792C232.287 57.5724 232.617 57.6648 232.949 57.7563C233.267 57.8436 233.585 57.9305 233.905 58.017L233.382 59.9475C233.06 59.8603 232.739 59.7727 232.419 59.6847ZM237.291 60.974C236.632 60.8061 235.978 60.6367 235.327 60.4658L235.835 58.5314C236.481 58.701 237.131 58.8692 237.785 59.036L237.291 60.974ZM241.198 61.9434C240.54 61.7844 239.885 61.6242 239.234 61.4626L239.716 59.5214C240.363 59.682 241.014 59.8413 241.668 59.9994L241.198 61.9434ZM245.115 62.8671C244.459 62.716 243.806 62.5639 243.156 62.4106L243.614 60.4639C244.261 60.6164 244.911 60.7678 245.564 60.9182L245.115 62.8671ZM249.045 63.7527C248.39 63.6082 247.738 63.4629 247.089 63.3166L247.528 61.3655C248.175 61.5111 248.824 61.6558 249.476 61.7997L249.045 63.7527ZM252.984 64.6056C252.326 64.4656 251.67 64.3249 251.016 64.1834L251.439 62.2287C252.09 62.3697 252.744 62.5098 253.4 62.6493L252.984 64.6056ZM256.929 65.4304C256.267 65.2942 255.608 65.1575 254.95 65.02L255.36 63.0623C256.015 63.1993 256.673 63.3357 257.332 63.4714L256.929 65.4304ZM260.867 66.2296C260.208 66.0975 259.55 65.965 258.894 65.8319L259.292 63.8718C259.946 64.0046 260.602 64.1368 261.26 64.2685L260.867 66.2296ZM264.813 67.0108C264.155 66.882 263.499 66.7528 262.844 66.6232L263.232 64.6612C263.886 64.7906 264.541 64.9195 265.197 65.0481L264.813 67.0108ZM268.764 67.7777C268.105 67.6509 267.447 67.5237 266.79 67.3962L267.171 65.4329C267.826 65.5601 268.484 65.6871 269.142 65.8138L268.764 67.7777ZM272.715 68.5334C272.055 68.4078 271.395 68.2821 270.737 68.1562L271.112 66.1918C271.77 66.3175 272.429 66.4431 273.089 66.5686L272.715 68.5334ZM275.366 69.0356C275.14 68.9929 274.914 68.9502 274.688 68.9074L275.06 66.9423C275.717 67.0667 276.375 67.1909 277.034 67.3151L276.663 69.2805C276.23 69.1989 275.798 69.1173 275.366 69.0356ZM280.613 70.0241L278.64 69.653L279.01 67.6875L280.983 68.0585L280.613 70.0241ZM284.564 70.7671L282.589 70.3955L282.958 68.4299L284.934 68.8017L284.564 70.7671ZM288.512 71.5124C287.854 71.3878 287.196 71.2634 286.538 71.1392L286.909 69.1739C287.567 69.2982 288.225 69.4226 288.884 69.5474L288.512 71.5124ZM292.458 72.2638C291.801 72.1379 291.143 72.0124 290.485 71.8872L290.859 69.9225C291.518 70.0478 292.176 70.1734 292.834 70.2994L292.458 72.2638ZM296.402 73.0243C295.745 72.8966 295.087 72.7693 294.429 72.6424L294.808 70.6786C295.467 70.8056 296.126 70.9331 296.784 71.061L296.402 73.0243ZM300.341 73.7969C299.685 73.667 299.029 73.5377 298.373 73.4089L298.758 71.4463C299.415 71.5754 300.073 71.7049 300.73 71.835L300.341 73.7969ZM304.278 74.5861C303.624 74.4533 302.968 74.3212 302.312 74.1897L302.705 72.2287C303.363 72.3605 304.02 72.4929 304.676 72.626L304.278 74.5861ZM308.211 75.3952C307.557 75.2586 306.901 75.1228 306.244 74.9877L306.647 73.0287C307.306 73.1642 307.963 73.3004 308.62 73.4374L308.211 75.3952ZM312.136 76.2272C311.482 76.0863 310.827 75.9464 310.171 75.8072L310.585 73.8507C311.244 73.9903 311.901 74.1307 312.557 74.2721L312.136 76.2272ZM316.049 77.0857C315.4 76.9406 314.749 76.7965 314.096 76.6534L314.525 74.6998C315.18 74.8435 315.833 74.9881 316.485 75.1338L316.049 77.0857ZM319.963 77.978C319.314 77.8271 318.664 77.6773 318.012 77.5286L318.456 75.5786C319.111 75.728 319.765 75.8784 320.416 76.0301L319.963 77.978ZM323.866 78.9068C323.218 78.749 322.567 78.5924 321.913 78.437L322.376 76.4913C323.033 76.6475 323.687 76.8049 324.339 76.9636L323.866 78.9068ZM327.754 79.8764C327.107 79.711 326.457 79.5469 325.804 79.3843L326.288 77.4437C326.944 77.6073 327.598 77.7723 328.249 77.9388L327.754 79.8764ZM331.623 80.8921C330.982 80.7193 330.339 80.5481 329.692 80.3785L330.2 78.444C330.85 78.6148 331.498 78.7871 332.144 78.9611L331.623 80.8921ZM335.48 81.9626C334.844 81.7808 334.204 81.6007 333.561 81.4223L334.096 79.4951C334.744 79.6748 335.388 79.8563 336.03 80.0395L335.48 81.9626ZM339.325 83.0959C338.69 82.9027 338.051 82.7115 337.409 82.5222L337.974 80.6037C338.622 80.7947 339.266 80.9876 339.907 81.1825L339.325 83.0959ZM343.143 84.2971C342.51 84.091 341.872 83.8871 341.23 83.6852L341.83 81.7774C342.478 81.9811 343.122 82.1871 343.762 82.3953L343.143 84.2971ZM346.929 85.575C346.301 85.3549 345.667 85.1372 345.028 84.9219L345.668 83.0268C346.313 83.2445 346.954 83.4647 347.59 83.6874L346.929 85.575ZM350.679 86.9401C350.06 86.7057 349.435 86.474 348.806 86.2448L349.489 84.3653C350.127 84.5974 350.76 84.8322 351.387 85.0698L350.679 86.9401ZM354.384 88.4043C353.776 88.1536 353.162 87.9058 352.542 87.6609L353.277 85.8007C353.906 86.0492 354.529 86.3008 355.147 86.5554L354.384 88.4043ZM358.037 89.9816C357.442 89.7122 356.839 89.446 356.23 89.183L357.022 87.3467C357.642 87.6142 358.255 87.8851 358.861 88.1594L358.037 89.9816ZM361.632 91.6913C361.049 91.3992 360.457 91.1108 359.858 90.8258L360.716 89.0196C361.328 89.3101 361.931 89.6044 362.527 89.9027L361.632 91.6913ZM365.146 93.5487C364.577 93.2306 363.999 92.9166 363.413 92.6066L364.347 90.8382C364.947 91.1554 365.539 91.477 366.122 91.803L365.146 93.5487ZM368.555 95.573C368.005 95.2257 367.445 94.8829 366.876 94.5446L367.896 92.8248C368.482 93.1722 369.058 93.5247 369.624 93.8823L368.555 95.573ZM371.83 97.7863C371.305 97.4063 370.769 97.0314 370.222 96.6615L371.341 95.0042C371.906 95.3859 372.46 95.7734 373.003 96.1667L371.83 97.7863ZM374.936 100.213C374.443 99.7966 373.937 99.3856 373.417 98.9801L374.649 97.404C375.187 97.8248 375.714 98.2522 376.227 98.6863L374.936 100.213ZM377.827 102.881C377.373 102.422 376.904 101.969 376.42 101.523L377.775 100.053C378.281 100.519 378.772 100.992 379.249 101.474L377.827 102.881ZM379.811 105.04C379.603 104.795 379.39 104.551 379.174 104.31L380.664 102.975C380.892 103.23 381.115 103.486 381.335 103.745C381.556 104.004 381.773 104.264 381.987 104.524L380.442 105.795C380.236 105.543 380.025 105.292 379.811 105.04ZM382.807 108.867C382.435 108.349 382.05 107.83 381.649 107.31L383.234 106.089C383.648 106.627 384.047 107.164 384.432 107.701L382.807 108.867ZM384.957 112.102C384.624 111.559 384.276 111.013 383.913 110.467L385.578 109.36C385.955 109.926 386.316 110.492 386.662 111.057L384.957 112.102ZM386.852 115.477C386.562 114.911 386.258 114.342 385.938 113.772L387.681 112.793C388.014 113.386 388.331 113.977 388.633 114.567L386.852 115.477ZM388.469 118.987C388.227 118.399 387.97 117.809 387.696 117.216L389.513 116.378C389.798 116.996 390.066 117.612 390.319 118.225L388.469 118.987ZM389.79 122.619C389.598 122.012 389.391 121.402 389.168 120.789L391.047 120.105C391.28 120.745 391.496 121.382 391.697 122.015L389.79 122.619ZM390.8 126.351C390.66 125.729 390.505 125.104 390.335 124.474L392.265 123.951C392.443 124.609 392.605 125.262 392.751 125.91L390.8 126.351ZM391.497 130.158C391.408 129.526 391.305 128.889 391.188 128.247L393.155 127.887C393.278 128.557 393.384 129.221 393.477 129.878L391.497 130.158ZM391.889 134.014C391.849 133.376 391.796 132.732 391.73 132.081L393.72 131.88C393.788 132.556 393.843 133.225 393.885 133.887L391.889 134.014ZM391.999 137.893C392.002 137.254 391.996 136.607 391.977 135.952L393.977 135.896C393.996 136.575 394.002 137.244 393.999 137.904L391.999 137.893ZM391.862 141.784C391.903 141.145 391.935 140.495 391.959 139.835L393.958 139.907C393.933 140.586 393.9 141.254 393.858 141.91L391.862 141.784ZM391.529 145.678C391.596 145.043 391.659 144.394 391.716 143.733L393.709 143.905C393.65 144.581 393.586 145.242 393.518 145.888L391.529 145.678ZM391.072 149.587C391.15 148.952 391.23 148.301 391.31 147.631L393.296 147.866C393.216 148.541 393.135 149.198 393.056 149.832L391.072 149.587ZM390.618 153.538C390.678 152.902 390.751 152.241 390.832 151.556L392.818 151.79C392.739 152.466 392.667 153.112 392.609 153.727L390.618 153.538ZM390.447 156.588C390.447 156.254 390.456 155.911 390.471 155.558L392.469 155.646C392.455 155.973 392.447 156.288 392.447 156.588H390.447Z" fill="url(#paint1_linear_2_926)" fill-opacity="0.7"/>
<path fill-rule="evenodd" clip-rule="evenodd" d="M197.665 1.53629C197.66 1.20254 197.658 0.871567 197.658 0.543457L195.658 0.543502C195.658 0.881591 195.66 1.22182 195.665 1.56401L197.665 1.53629ZM197.799 5.55198C197.767 4.87295 197.738 4.20235 197.715 3.54056L195.716 3.60985C195.739 4.2823 195.769 4.96166 195.801 5.64654L197.799 5.55198ZM197.945 8.3862C197.93 8.11257 197.915 7.84011 197.901 7.5694L195.904 7.67525C195.918 7.94829 195.933 8.22143 195.948 8.49518C195.969 8.89411 195.99 9.29432 196.011 9.69729L198.009 9.59251C197.988 9.18915 197.966 8.78643 197.945 8.3862ZM198.193 13.6562C198.169 12.9737 198.141 12.2951 198.11 11.6214L196.112 11.7138C196.143 12.3818 196.171 13.0526 196.194 13.7258L198.193 13.6562ZM198.264 17.7433C198.266 17.0585 198.26 16.3761 198.248 15.697L196.248 15.7335C196.261 16.4 196.266 17.068 196.264 17.7368L198.264 17.7433ZM198.139 21.8485C198.181 21.1626 198.211 20.4776 198.231 19.7944L196.232 19.7349C196.212 20.3989 196.183 21.0629 196.142 21.7263L198.139 21.8485ZM197.733 25.9551C197.829 25.2713 197.909 24.5871 197.976 23.9033L195.985 23.7084C195.921 24.3664 195.844 25.023 195.752 25.6778L197.733 25.9551ZM196.965 30.0286C197.128 29.3536 197.272 28.6768 197.399 27.9989L195.433 27.6301C195.312 28.276 195.175 28.9193 195.021 29.5596L196.965 30.0286ZM195.763 34.0125C196.004 33.3568 196.223 32.6977 196.422 32.0361L194.507 31.4599C194.319 32.0849 194.112 32.7063 193.886 33.3236L195.763 34.0125ZM194.083 37.831C194.407 37.2076 194.707 36.5796 194.984 35.9477L193.153 35.1429C192.893 35.7362 192.611 36.3254 192.308 36.9098L194.083 37.831ZM191.922 41.403C192.326 40.8249 192.705 40.2411 193.061 39.6524L191.35 38.6169C191.016 39.1686 190.661 39.7158 190.282 40.2579L191.922 41.403ZM189.317 44.6676C189.792 44.1431 190.243 43.6125 190.671 43.0762L189.108 41.8282C188.706 42.332 188.282 42.831 187.834 43.3249L189.317 44.6676ZM186.35 47.5799C186.878 47.1167 187.385 46.6474 187.869 46.1722L186.469 44.7439C186.011 45.1927 185.533 45.6369 185.032 46.0759L186.35 47.5799ZM183.095 50.1484C183.669 49.7393 184.223 49.3243 184.757 48.9036L183.519 47.3329C183.011 47.7331 182.483 48.1286 181.935 48.5192L183.095 50.1484ZM179.628 52.392C180.228 52.0388 180.809 51.6803 181.372 51.3165L180.287 49.6364C179.747 49.985 179.189 50.3292 178.613 50.6687L179.628 52.392ZM175.987 54.3549C176.619 54.0432 177.233 53.7264 177.83 53.4047L176.882 51.6438C176.305 51.9541 175.712 52.2601 175.102 52.5615L175.987 54.3549ZM172.249 56.0545C172.897 55.7833 173.529 55.5075 174.146 55.2271L173.318 53.4063C172.72 53.6782 172.106 53.9461 171.477 54.2097L172.249 56.0545ZM168.432 57.5322C169.088 57.2976 169.73 57.0587 170.358 56.8157L169.636 54.9505C169.024 55.1872 168.398 55.4201 167.758 55.6492L168.432 57.5322ZM164.55 58.821C165.212 58.6174 165.861 58.41 166.498 58.1988L165.868 56.3004C165.245 56.5069 164.61 56.71 163.962 56.9094L164.55 58.821ZM161.581 59.6847C161.92 59.5915 162.256 59.4974 162.589 59.4023L162.039 57.4792C161.713 57.5724 161.383 57.6648 161.051 57.7563C160.733 57.8436 160.415 57.9305 160.095 58.017L160.618 59.9475C160.94 59.8603 161.261 59.7727 161.581 59.6847ZM156.709 60.974C157.368 60.8061 158.022 60.6367 158.673 60.4658L158.165 58.5314C157.519 58.701 156.869 58.8692 156.215 59.036L156.709 60.974ZM152.802 61.9434C153.46 61.7844 154.115 61.6242 154.766 61.4626L154.284 59.5214C153.637 59.682 152.986 59.8413 152.332 59.9994L152.802 61.9434ZM148.885 62.8671C149.541 62.716 150.194 62.5639 150.844 62.4106L150.386 60.4639C149.739 60.6164 149.089 60.7678 148.436 60.9182L148.885 62.8671ZM144.955 63.7527C145.61 63.6082 146.262 63.4629 146.911 63.3166L146.472 61.3655C145.825 61.5111 145.176 61.6558 144.524 61.7997L144.955 63.7527ZM141.016 64.6056C141.674 64.4656 142.33 64.3249 142.984 64.1834L142.561 62.2287C141.91 62.3697 141.256 62.5098 140.6 62.6493L141.016 64.6056ZM137.071 65.4304C137.733 65.2942 138.392 65.1575 139.05 65.02L138.64 63.0623C137.985 63.1993 137.327 63.3357 136.668 63.4714L137.071 65.4304ZM133.133 66.2296C133.792 66.0975 134.45 65.965 135.106 65.8319L134.708 63.8718C134.054 64.0046 133.398 64.1368 132.74 64.2685L133.133 66.2296ZM129.187 67.0108C129.845 66.882 130.501 66.7528 131.156 66.6232L130.768 64.6612C130.114 64.7906 129.459 64.9195 128.803 65.0481L129.187 67.0108ZM125.236 67.7777C125.895 67.6509 126.553 67.5237 127.21 67.3962L126.829 65.4329C126.174 65.5601 125.516 65.6871 124.858 65.8138L125.236 67.7777ZM121.285 68.5334C121.945 68.4078 122.605 68.2821 123.263 68.1562L122.888 66.1918C122.23 66.3175 121.571 66.4431 120.911 66.5686L121.285 68.5334ZM118.634 69.0356C118.86 68.9929 119.086 68.9502 119.312 68.9074L118.94 66.9423C118.283 67.0667 117.625 67.1909 116.966 67.3151L117.337 69.2805C117.77 69.1989 118.202 69.1173 118.634 69.0356ZM113.387 70.0241L115.36 69.653L114.99 67.6875L113.017 68.0585L113.387 70.0241ZM109.436 70.7671L111.411 70.3955L111.042 68.4299L109.066 68.8017L109.436 70.7671ZM105.488 71.5124C106.146 71.3878 106.804 71.2634 107.462 71.1392L107.091 69.1739C106.433 69.2982 105.775 69.4226 105.116 69.5474L105.488 71.5124ZM101.542 72.2638C102.199 72.1379 102.857 72.0124 103.515 71.8872L103.141 69.9225C102.482 70.0478 101.824 70.1734 101.166 70.2994L101.542 72.2638ZM97.5976 73.0243C98.2548 72.8966 98.9126 72.7693 99.5707 72.6424L99.1921 70.6786C98.5331 70.8056 97.8743 70.9331 97.2161 71.061L97.5976 73.0243ZM93.6592 73.7969C94.3146 73.667 94.9706 73.5377 95.6274 73.4089L95.2424 71.4463C94.5845 71.5754 93.9271 71.7049 93.2705 71.835L93.6592 73.7969ZM89.7222 74.5861C90.3765 74.4533 91.0318 74.3212 91.688 74.1897L91.295 72.2287C90.6373 72.3605 89.9804 72.4929 89.3244 72.626L89.7222 74.5861ZM85.7888 75.3952C86.4432 75.2586 87.0989 75.1228 87.7558 74.9877L87.3529 73.0287C86.6942 73.1642 86.0367 73.3004 85.3803 73.4374L85.7888 75.3952ZM81.8641 76.2272C82.5177 76.0863 83.1728 75.9464 83.8294 75.8072L83.4147 73.8507C82.756 73.9903 82.0987 74.1307 81.4428 74.2721L81.8641 76.2272ZM77.9511 77.0857C78.6002 76.9406 79.2511 76.7965 79.9037 76.6534L79.4752 74.6998C78.8201 74.8435 78.1667 74.9881 77.5149 75.1338L77.9511 77.0857ZM74.0373 77.978C74.6857 77.8271 75.336 77.6773 75.9884 77.5286L75.5439 75.5786C74.8887 75.728 74.2353 75.8784 73.584 76.0301L74.0373 77.978ZM70.134 78.9068C70.7825 78.749 71.4334 78.5924 72.0865 78.437L71.6236 76.4913C70.9672 76.6475 70.3129 76.8049 69.6609 76.9636L70.134 78.9068ZM66.2462 79.8764C66.8934 79.711 67.5433 79.5469 68.1958 79.3843L67.712 77.4437C67.0558 77.6073 66.402 77.7723 65.7508 77.9388L66.2462 79.8764ZM62.3772 80.8921C63.0178 80.7193 63.6614 80.5481 64.308 80.3785L63.8003 78.444C63.1495 78.6148 62.5015 78.7871 61.8565 78.9611L62.3772 80.8921ZM58.5199 81.9626C59.1561 81.7808 59.7957 81.6007 60.4386 81.4223L59.9039 79.4951C59.2562 79.6748 58.6116 79.8563 57.9704 80.0395L58.5199 81.9626ZM54.6752 83.0959C55.31 82.9027 55.9488 82.7115 56.5913 82.5222L56.0259 80.6037C55.378 80.7947 54.7336 80.9876 54.093 81.1825L54.6752 83.0959ZM50.8572 84.2971C51.4903 84.091 52.1278 83.8871 52.7695 83.6852L52.1696 81.7774C51.5216 81.9811 50.8777 82.1871 50.2381 82.3953L50.8572 84.2971ZM47.0708 85.575C47.6994 85.3549 48.3331 85.1372 48.9716 84.9219L48.3323 83.0268C47.6868 83.2445 47.0459 83.4647 46.4098 83.6874L47.0708 85.575ZM43.3214 86.9401C43.9403 86.7057 44.5647 86.474 45.1945 86.2448L44.5106 84.3653C43.8728 84.5974 43.2402 84.8322 42.6129 85.0698L43.3214 86.9401ZM39.6159 88.4043C40.2238 88.1536 40.8379 87.9058 41.458 87.6609L40.7233 85.8007C40.0941 86.0492 39.4707 86.3008 38.8533 86.5554L39.6159 88.4043ZM35.9628 89.9816C36.5585 89.7122 37.1611 89.446 37.7704 89.183L36.9778 87.3467C36.3581 87.6142 35.745 87.8851 35.1385 88.1594L35.9628 89.9816ZM32.3677 91.6913C32.9514 91.3992 33.543 91.1108 34.1423 90.8258L33.2835 89.0196C32.6725 89.3101 32.0688 89.6044 31.4727 89.9027L32.3677 91.6913ZM28.8536 93.5487C29.4227 93.2306 30.0007 92.9166 30.5874 92.6066L29.6531 90.8382C29.0528 91.1554 28.4609 91.477 27.8777 91.803L28.8536 93.5487ZM25.4448 95.573C25.9946 95.2257 26.5545 94.8829 27.1245 94.5446L26.1036 92.8248C25.5182 93.1722 24.9424 93.5247 24.3765 93.8823L25.4448 95.573ZM22.17 97.7863C22.6946 97.4063 23.2308 97.0314 23.7784 96.6615L22.6589 95.0042C22.0937 95.3859 21.5396 95.7734 20.9966 96.1667L22.17 97.7863ZM19.0644 100.213C19.5574 99.7966 20.0635 99.3856 20.5825 98.9801L19.3513 97.404C18.8126 97.8248 18.2863 98.2522 17.773 98.6863L19.0644 100.213ZM16.1726 102.881C16.6269 102.422 17.0963 101.969 17.5803 101.523L16.2248 100.053C15.719 100.519 15.2276 100.992 14.7511 101.474L16.1726 102.881ZM14.1888 105.04C14.3971 104.795 14.6095 104.551 14.826 104.31L13.3363 102.975C13.1084 103.23 12.8846 103.486 12.6649 103.745C12.4441 104.004 12.2269 104.264 12.0133 104.524L13.5575 105.795C13.7644 105.543 13.9748 105.292 14.1888 105.04ZM11.1932 108.867C11.5647 108.349 11.9503 107.83 12.3508 107.31L10.7662 106.089C10.352 106.627 9.95284 107.164 9.56812 107.701L11.1932 108.867ZM9.04298 112.102C9.3761 111.559 9.72403 111.013 10.0874 110.467L8.42191 109.36C8.045 109.926 7.68382 110.492 7.33781 111.057L9.04298 112.102ZM7.14838 115.477C7.43768 114.911 7.74214 114.342 8.06242 113.772L6.31863 112.793C5.9855 113.386 5.66866 113.977 5.3674 114.567L7.14838 115.477ZM5.53065 118.987C5.77277 118.399 6.03014 117.809 6.30356 117.216L4.4873 116.378C4.20232 116.996 3.93396 117.612 3.68141 118.225L5.53065 118.987ZM4.20984 122.619C4.40187 122.012 4.60898 121.402 4.83208 120.789L2.95256 120.105C2.71974 120.745 2.50359 121.382 2.30313 122.015L4.20984 122.619ZM3.19952 126.351C3.33997 125.729 3.49489 125.104 3.66537 124.474L1.73485 123.951C1.5569 124.609 1.39523 125.262 1.24872 125.91L3.19952 126.351ZM2.50296 130.158C2.59218 129.526 2.69487 128.889 2.81229 128.247L0.844894 127.887C0.722488 128.557 0.615509 129.221 0.522614 129.878L2.50296 130.158ZM2.1109 134.014C2.15143 133.376 2.20398 132.732 2.26996 132.081L0.280167 131.88C0.211563 132.556 0.156998 133.225 0.114929 133.887L2.1109 134.014ZM2.00093 137.893C1.9976 137.254 2.00426 136.607 2.02257 135.952L0.0233459 135.896C0.00437927 136.575 -0.00248718 137.244 0.000961304 137.904L2.00093 137.893ZM2.13766 141.784C2.09744 141.145 2.06459 140.495 2.04108 139.835L0.0423584 139.907C0.0665436 140.586 0.100342 141.254 0.141617 141.91L2.13766 141.784ZM2.47108 145.678C2.40421 145.043 2.34097 144.394 2.28383 143.733L0.29126 143.905C0.34964 144.581 0.414108 145.242 0.482071 145.888L2.47108 145.678ZM2.92845 149.587C2.85004 148.952 2.76968 148.301 2.69048 147.631L0.70433 147.866C0.78421 148.541 0.865173 149.198 0.943527 149.832L2.92845 149.587ZM3.38237 153.538C3.32198 152.902 3.24869 152.241 3.16811 151.556L1.18182 151.79C1.26147 152.466 1.3329 153.112 1.39134 153.727L3.38237 153.538ZM3.5526 156.588C3.5526 156.254 3.54417 155.911 3.52876 155.558L1.53067 155.646C1.545 155.973 1.5526 156.288 1.5526 156.588H3.5526Z" fill="url(#paint2_linear_2_926)" fill-opacity="0.7"/>
<defs>
<linearGradient id="paint0_linear_2_926" x1="196.018" y1="9.82667" x2="201.219" y2="10.0152" gradientUnits="userSpaceOnUse">
<stop stop-color="#15BFFD"/>
<stop offset="1" stop-color="#9C37FD"/>
</linearGradient>
<linearGradient id="paint1_linear_2_926" x1="217.544" y1="15.2323" x2="293.711" y2="198.312" gradientUnits="userSpaceOnUse">
<stop stop-color="#15BFFD"/>
<stop offset="1" stop-color="#9C37FD"/>
</linearGradient>
<linearGradient id="paint2_linear_2_926" x1="176.456" y1="15.2323" x2="100.289" y2="198.312" gradientUnits="userSpaceOnUse">
<stop stop-color="#15BFFD"/>
<stop offset="1" stop-color="#9C37FD"/>
</linearGradient>
</defs>
</svg>
