<svg width="422" height="485" viewBox="0 0 422 485" fill="none" xmlns="http://www.w3.org/2000/svg">
<g filter="url(#filter0_dd_42_257)">
<path d="M169.657 37.0196L169.506 37.037L169.357 37.0698L148.414 41.6669C134.844 44.6457 121.722 49.3868 109.382 55.7697L104.757 58.1619C90.7916 65.3854 78.2442 75.0698 67.7181 86.7495C53.6339 102.377 43.5307 121.174 38.2669 141.542L38.1317 142.065L41.0252 142.813L38.1317 142.065C35.7268 151.371 34.3386 160.911 33.9914 170.516L33.4841 184.553C33.1591 193.545 40.3323 201.025 49.33 201.078L113.716 201.452C119.94 201.488 125.027 196.497 125.11 190.274L125.392 169.149C125.458 164.137 126.423 159.102 128.196 154.403C132.384 143.305 141.063 134.302 152.019 129.824L158.98 127.626C166.779 125.163 174.748 123.273 182.822 121.971C195.004 120.006 207.365 119.389 219.682 120.131L242.185 121.486L262.006 124.478C265.981 125.078 269.816 126.385 273.331 128.338L276.177 129.919C281.566 132.913 285.666 137.784 287.696 143.605C289.962 150.098 289.466 157.237 286.324 163.354L286.006 163.974C283.842 168.188 280.598 171.751 276.606 174.3L265.411 181.447C261.877 183.703 258.161 185.663 254.303 187.305L209.825 206.24L209.788 206.255L209.751 206.272L188.618 215.948C174.798 222.275 163.061 232.402 154.777 245.146C149.764 252.859 146.116 261.376 143.992 270.326L143.582 272.052C141.186 282.151 140.547 292.588 141.693 302.904L142.006 305.718C142.466 309.864 145.97 313 150.141 313H185.5H227.155C231.159 313 234.519 309.983 234.95 306.002L236.083 295.515C236.317 293.358 236.865 291.247 237.71 289.248C239.997 283.843 244.33 279.563 249.764 277.343L286.635 262.277L286.684 262.257L286.733 262.235L323.852 245.495C333.334 241.219 342.093 235.493 349.813 228.523C366.316 213.624 377.398 193.662 381.314 171.776L381.636 169.976C383.219 161.128 383.667 152.114 382.966 143.153L382.668 139.329C381.864 129.043 379.506 118.938 375.674 109.358C370.649 96.7958 363.178 85.3573 353.695 75.7074L353.093 75.0948L350.953 77.1976L353.092 75.0948C343.608 65.4437 332.369 57.6906 319.979 52.251L313.697 49.4932C302.513 44.5828 290.741 41.1359 278.674 39.2377L251.966 35.0364L251.852 35.0184L251.736 35.0093C226.269 32.9988 200.668 33.4552 175.289 36.3724L169.657 37.0196ZM137 348.5V437.074C137 441.446 140.509 445.008 144.881 445.073L235.381 446.424C239.845 446.491 243.5 442.89 243.5 438.425V348.5C243.5 344.082 239.918 340.5 235.5 340.5H145C140.582 340.5 137 344.082 137 348.5Z" stroke="url(#paint0_linear_42_257)" stroke-opacity="0.7" stroke-width="6"/>
</g>
<defs>
<filter id="filter0_dd_42_257" x="0.473389" y="0.780029" width="420.814" height="483.645" filterUnits="userSpaceOnUse" color-interpolation-filters="sRGB">
<feFlood flood-opacity="0" result="BackgroundImageFix"/>
<feColorMatrix in="SourceAlpha" type="matrix" values="0 0 0 0 0 0 0 0 0 0 0 0 0 0 0 0 0 0 127 0" result="hardAlpha"/>
<feOffset dx="10" dy="10"/>
<feGaussianBlur stdDeviation="12.5"/>
<feColorMatrix type="matrix" values="0 0 0 0 0.419608 0 0 0 0 0.333333 0 0 0 0 0.847059 0 0 0 1 0"/>
<feBlend mode="normal" in2="BackgroundImageFix" result="effect1_dropShadow_42_257"/>
<feColorMatrix in="SourceAlpha" type="matrix" values="0 0 0 0 0 0 0 0 0 0 0 0 0 0 0 0 0 0 127 0" result="hardAlpha"/>
<feOffset dx="-5" dy="-5"/>
<feGaussianBlur stdDeviation="12.5"/>
<feColorMatrix type="matrix" values="0 0 0 0 0.419608 0 0 0 0 0.333333 0 0 0 0 0.847059 0 0 0 1 0"/>
<feBlend mode="normal" in2="effect1_dropShadow_42_257" result="effect2_dropShadow_42_257"/>
<feBlend mode="normal" in="SourceGraphic" in2="effect2_dropShadow_42_257" result="shape"/>
</filter>
<linearGradient id="paint0_linear_42_257" x1="141.75" y1="41.5" x2="141.75" y2="432" gradientUnits="userSpaceOnUse">
<stop stop-color="#15BFFD"/>
<stop offset="1" stop-color="#9747FF"/>
</linearGradient>
</defs>
</svg>
