<svg width="169" height="33" viewBox="0 0 169 33" fill="none" xmlns="http://www.w3.org/2000/svg">
<g clip-path="url(#clip0_2_951)">
<path d="M3.43013 13.3202C3.43013 13.434 3.43013 13.5235 3.43013 13.6048V21.5824C3.42456 21.665 3.44273 21.7476 3.48262 21.8208C3.5225 21.8941 3.58254 21.9551 3.65602 21.9971C6.50057 23.9244 9.31166 25.8598 12.1562 27.7627C12.2421 27.8196 12.3315 27.8712 12.4239 27.9173V15.9306C12.608 15.8655 15.6031 15.8655 15.8541 15.9306V27.8929C15.988 27.8929 16.0298 27.8929 16.0968 27.7871C16.9334 27.2179 17.77 26.6649 18.6067 26.0957L24.6053 22.0296C24.94 21.8101 24.873 21.9239 24.873 21.501V13.3039C25.2491 13.2797 25.6264 13.2797 26.0025 13.3039H28.2781C28.2781 13.4096 28.2781 13.4747 28.2781 13.5641V23.3226C28.2831 23.3969 28.267 23.471 28.2316 23.537C28.1962 23.6029 28.1428 23.6582 28.0774 23.6967C27.2909 24.2172 26.5212 24.7701 25.7348 25.3231C22.0369 27.8441 18.3138 30.365 14.6243 32.886L14.3984 33.0405C14.3315 32.951 14.2394 32.886 14.1725 32.7965C14.1043 32.8837 14.0287 32.9653 13.9466 33.0405L13.7626 32.9104L3.89864 26.1607L0.317848 23.7211C0.234998 23.671 0.167824 23.5997 0.123587 23.5152C0.0793506 23.4306 0.0597341 23.3359 0.0668582 23.2413V13.3446C1.18642 13.2706 2.30955 13.2624 3.43013 13.3202Z" fill="white"/>
<path d="M28.2444 12.4665H24.8393C24.8393 12.377 24.8393 12.312 24.8393 12.2469V11.3849C24.8472 11.322 24.8345 11.2582 24.803 11.2027C24.7714 11.1472 24.7226 11.1028 24.6636 11.0759C23.8269 10.5067 22.9485 9.92114 22.0951 9.3275L16.0964 5.26146C16.0042 5.20625 15.9148 5.14654 15.8287 5.08255V14.898H12.3985V5.13948L12.1475 5.26959C11.2021 5.90389 10.2818 6.5382 9.32808 7.1725C7.43729 8.4655 5.5465 9.74224 3.67244 11.0352C3.67244 11.0352 3.58041 11.1003 3.53858 11.1166C3.50091 11.1394 3.47069 11.1721 3.45143 11.211C3.43218 11.2499 3.42468 11.2933 3.42981 11.3361V12.1981C3.44214 12.2708 3.44214 12.345 3.42981 12.4177H-0.000382883C-0.000382883 12.3526 -0.000382883 12.2632 -0.000382883 12.1981V9.66092C-0.00440887 9.58681 0.012098 9.513 0.0474159 9.4472C0.0827337 9.38141 0.135569 9.32603 0.200409 9.28684C2.04937 8.04263 3.89833 6.77403 5.74729 5.52169L13.6618 0.130113L13.8626 0C13.9296 0.0894529 13.9965 0.15451 14.0885 0.260227C14.1558 0.167203 14.2314 0.0801236 14.3144 0C14.3563 0 14.4232 0.0650567 14.4734 0.0813208L25.4249 7.56284C26.2615 8.13208 27.0982 8.71759 27.9348 9.28684C28.0161 9.334 28.082 9.40255 28.125 9.48456C28.1679 9.56658 28.1861 9.65873 28.1774 9.75037C28.1774 10.5636 28.1774 11.3768 28.1774 12.19C28.2149 12.2781 28.2375 12.3714 28.2444 12.4665Z" fill="white"/>
<path d="M39.1292 19.1917C39.9658 15.9388 40.8024 12.751 41.7227 9.50635H44.8601C45.1027 9.50635 45.1027 9.50635 45.1529 9.72591C45.6884 11.8321 46.2071 13.9383 46.7509 16.0608C47.0186 17.0936 47.2696 18.1426 47.5373 19.1754C47.561 19.2434 47.5918 19.3088 47.6294 19.3706C47.7915 18.8365 47.92 18.2934 48.0142 17.7441C48.1481 17.1912 48.2652 16.6463 48.374 16.1177C48.4827 15.5891 48.6249 15.0199 48.7337 14.4913C48.8425 13.9627 48.9847 13.3935 49.0935 12.8649C49.2022 12.3363 49.3444 11.7671 49.4532 11.1978C49.562 10.6286 49.7042 10.1 49.813 9.57141H52.6575C52.6575 9.67712 52.6575 9.79097 52.5906 9.87229L49.2441 23.4854C49.2468 23.5206 49.2468 23.5559 49.2441 23.5911C49.2441 23.6806 49.1771 23.705 49.1102 23.705H46.2322C46.2322 23.6399 46.2322 23.5505 46.1652 23.4854L43.5047 13.304C43.5047 13.2308 43.5047 13.1251 43.3625 13.0845C42.4171 16.6057 41.4968 20.1187 40.5514 23.6562H40.3004H37.6483C37.4057 23.6562 37.4057 23.6562 37.3304 23.4203C36.8368 21.3792 36.3683 19.3543 35.8663 17.2806C35.3643 15.2069 34.8289 12.9462 34.3101 10.775C34.2265 10.4253 34.1344 10.0756 34.0675 9.72591C34.0537 9.65334 34.0537 9.57892 34.0675 9.50635H36.7029C36.9539 9.50635 36.9539 9.50635 36.9957 9.72591C37.2467 10.8888 37.5144 12.0517 37.7654 13.1902C38.1921 15.1175 38.6021 17.0692 39.0539 18.9965C39.0616 19.0532 39.0616 19.1106 39.0539 19.1673C39.0873 19.1917 39.1124 19.1917 39.1292 19.1917Z" fill="white"/>
<path d="M67.5078 9.50644H73.7324C74.4136 9.49313 75.0945 9.54488 75.7654 9.66095C76.4608 9.77714 77.1053 10.0909 77.6175 10.5627C78.1297 11.0345 78.4867 11.6432 78.6434 12.312C78.8175 13.0229 78.7483 13.7696 78.4464 14.4388C78.1444 15.108 77.6261 15.6632 76.9701 16.0202L76.7693 16.126C76.841 16.1652 76.9083 16.2115 76.9701 16.2642C77.5283 16.4521 78.0368 16.7575 78.4593 17.1587C79.0364 17.756 79.3722 18.5357 79.4047 19.3544C79.4379 20.2779 79.1716 21.1883 78.6434 21.9567C78.3589 22.3707 77.9888 22.7227 77.5567 22.9901C77.1246 23.2575 76.6399 23.4345 76.1335 23.5099C75.7989 23.5099 75.4391 23.5749 75.0961 23.5993C72.6615 23.6807 70.2269 23.64 67.8174 23.64H67.6835C67.6653 23.6428 67.6466 23.6413 67.6291 23.6358C67.6115 23.6302 67.5956 23.6207 67.5825 23.608C67.5695 23.5953 67.5597 23.5798 67.554 23.5628C67.5483 23.5457 67.5468 23.5276 67.5496 23.5099V9.75853C67.5289 9.6757 67.5149 9.5914 67.5078 9.50644ZM72.5276 21.3224H73.5818C74.0085 21.3224 74.4184 21.3224 74.8451 21.2573C75.205 21.2368 75.5485 21.1038 75.8244 20.8781C76.1003 20.6524 76.2938 20.3462 76.3761 20.005C76.4232 19.7884 76.4457 19.5675 76.4431 19.3463C76.4484 18.9177 76.2908 18.5023 76.0006 18.1797C75.7104 17.8571 75.3078 17.6499 74.8702 17.5979C74.3419 17.5148 73.8073 17.4767 73.2722 17.484H70.4611C70.3105 17.484 70.2854 17.484 70.2854 17.6629V21.2085C70.2826 21.2262 70.2841 21.2444 70.2898 21.2614C70.2955 21.2785 70.3053 21.294 70.3183 21.3066C70.3314 21.3193 70.3473 21.3288 70.3649 21.3344C70.3824 21.34 70.4011 21.3414 70.4193 21.3386H70.5783C71.2559 21.3224 71.8834 21.3224 72.5192 21.3224H72.5276ZM72.4607 11.8078C71.8499 11.8078 71.2392 11.8078 70.6285 11.8078H70.4695C70.4513 11.805 70.4326 11.8065 70.4151 11.812C70.3975 11.8176 70.3816 11.8271 70.3685 11.8398C70.3555 11.8525 70.3457 11.868 70.34 11.885C70.3343 11.9021 70.3328 11.9202 70.3356 11.9379V15.0037C70.3356 15.1176 70.3858 15.1582 70.4946 15.142H73.4228C73.8013 15.1455 74.1794 15.1156 74.5523 15.0525C74.8767 15.015 75.1812 14.8807 75.4239 14.6681C75.6666 14.4554 75.8356 14.175 75.9076 13.8652C75.9662 13.6273 75.9662 13.3794 75.9076 13.1415C75.8833 12.8838 75.7838 12.6382 75.6208 12.4336C75.4577 12.229 75.238 12.074 74.9873 11.9867C74.7787 11.9074 74.5584 11.8607 74.3347 11.8485C73.7073 11.8322 73.0798 11.8322 72.4523 11.8078H72.4607Z" fill="white"/>
<path d="M94.0459 9.50635H100.538C101.247 9.51271 101.955 9.57253 102.655 9.68525C103.268 9.77646 103.843 10.0316 104.316 10.4222C104.789 10.8128 105.141 11.3235 105.332 11.8972C105.706 12.8542 105.736 13.9062 105.416 14.8817C105.255 15.3701 104.982 15.8168 104.618 16.1885C104.255 16.5602 103.81 16.8474 103.316 17.0285C102.944 17.1689 102.561 17.2777 102.17 17.3538L101.877 17.4189C101.934 17.4751 102.002 17.5194 102.078 17.549C102.846 18.0019 103.501 18.6159 103.993 19.3462L105.617 21.8265C105.951 22.3469 106.294 22.8999 106.629 23.4529C106.679 23.5179 106.696 23.583 106.763 23.6724C106.679 23.6724 106.604 23.6724 106.537 23.6724H103.609C103.541 23.6782 103.473 23.6643 103.413 23.6324C103.354 23.6006 103.305 23.5522 103.274 23.4935C102.437 22.3144 101.668 21.1108 100.881 19.9235C100.613 19.5332 100.321 19.1591 100.045 18.7607C99.953 18.6349 99.8493 18.5178 99.735 18.411C99.333 18.0147 98.7926 17.7796 98.2207 17.7523C97.8359 17.7523 97.4761 17.7523 97.0913 17.7523H96.8737V23.6643C96.6313 23.6765 96.3883 23.6765 96.1459 23.6643H94.071C94.0208 23.4935 93.9957 9.75844 94.0459 9.50635ZM96.8821 15.516H97.1331H99.5593C100.161 15.5257 100.762 15.4903 101.358 15.4102C101.654 15.3652 101.932 15.2409 102.159 15.0513C102.387 14.8617 102.555 14.6143 102.647 14.3368C102.732 14.0519 102.763 13.7543 102.739 13.4585C102.717 13.1215 102.587 12.7994 102.368 12.5371C102.149 12.2748 101.852 12.0853 101.517 11.9948C101.244 11.925 100.962 11.8949 100.68 11.9053C99.484 11.9053 98.2876 11.9053 97.1164 11.9053C97.0745 11.9053 97.0076 11.9053 96.9407 11.9053C96.8821 13.0845 96.8821 14.288 96.8821 15.516Z" fill="white"/>
<path d="M126.524 23.6399C126.432 23.6399 126.365 23.6399 126.298 23.6399H124.022C124.008 23.6411 123.993 23.6393 123.979 23.6344C123.965 23.6295 123.953 23.6218 123.943 23.6117C123.932 23.6016 123.924 23.5894 123.919 23.5761C123.914 23.5627 123.912 23.5484 123.914 23.5342V9.75842C123.906 9.67182 123.906 9.5848 123.914 9.4982C124.006 9.4982 124.047 9.4982 124.123 9.4982H126.465C126.527 9.49631 126.588 9.51232 126.64 9.54419C126.692 9.57606 126.733 9.62234 126.758 9.6771L129.143 13.5805L132.322 18.7525C132.379 18.8197 132.432 18.8903 132.481 18.9639C132.492 18.9056 132.509 18.8484 132.531 18.7932V9.75842C132.523 9.67186 132.523 9.58476 132.531 9.4982H135.099C135.15 9.65271 135.15 23.3227 135.099 23.6318H134.882H132.514C132.443 23.6391 132.371 23.6242 132.31 23.589C132.248 23.5539 132.199 23.5005 132.171 23.4366C130.749 21.1108 129.31 18.8094 127.871 16.5081C127.486 15.8738 127.076 15.2394 126.691 14.6051C126.64 14.5356 126.596 14.4622 126.557 14.3856C126.54 14.4417 126.526 14.4987 126.515 14.5564V23.3553C126.505 23.4501 126.508 23.5458 126.524 23.6399Z" fill="white"/>
<path d="M121.588 16.6055C121.608 17.6868 121.432 18.763 121.069 19.7852C120.774 20.6686 120.27 21.4724 119.597 22.132C118.924 22.7916 118.102 23.2885 117.195 23.5829C116.387 23.8467 115.537 23.9652 114.685 23.9325C113.86 23.9476 113.037 23.8294 112.251 23.5829C111.321 23.2916 110.476 22.7871 109.789 22.112C109.102 21.4369 108.592 20.6109 108.302 19.7039C108.074 19.0291 107.931 18.3301 107.875 17.6221C107.833 16.9586 107.833 16.2932 107.875 15.6297C107.931 14.4701 108.272 13.3405 108.871 12.3362C109.341 11.5153 110.009 10.8178 110.818 10.3036C111.627 9.78934 112.552 9.47385 113.514 9.38425C114.207 9.29076 114.909 9.27439 115.606 9.33546C116.884 9.42135 118.105 9.88478 119.106 10.6637C120.106 11.4427 120.838 12.5 121.203 13.6943C121.407 14.3448 121.533 15.0161 121.579 15.6947C121.562 15.9712 121.588 16.3047 121.588 16.6055ZM118.684 16.5649C118.684 16.2559 118.684 15.955 118.634 15.6704C118.6 15.098 118.47 14.535 118.249 14.0033C118.07 13.5163 117.781 13.0744 117.403 12.71C117.025 12.3456 116.568 12.0679 116.066 11.8971C115.479 11.706 114.855 11.6476 114.242 11.7263C113.788 11.7562 113.345 11.8737 112.938 12.0719C112.532 12.2702 112.17 12.5453 111.874 12.881C111.459 13.3521 111.159 13.908 110.996 14.5075C110.792 15.2853 110.707 16.0882 110.745 16.8902C110.757 17.5831 110.872 18.2707 111.088 18.9313C111.245 19.4185 111.501 19.8699 111.842 20.2584C112.183 20.6469 112.601 20.9645 113.071 21.192C113.645 21.4556 114.277 21.5758 114.911 21.5417C115.517 21.5251 116.107 21.357 116.626 21.0538C117.431 20.5674 118.026 19.8129 118.3 18.9313C118.524 18.1602 118.654 17.3658 118.684 16.5649Z" fill="white"/>
<path d="M168.565 13.5236L165.771 13.6537C165.771 13.5642 165.771 13.4992 165.704 13.4341C165.665 13.2433 165.603 13.0577 165.52 12.8811C165.417 12.592 165.238 12.3338 165.002 12.1314C164.766 11.9291 164.481 11.7895 164.173 11.7264C163.393 11.5259 162.571 11.5485 161.805 11.7914C161.598 11.8615 161.401 11.9572 161.219 12.0761C161.058 12.1734 160.923 12.3082 160.829 12.4684C160.734 12.6287 160.682 12.8093 160.677 12.994C160.672 13.1787 160.714 13.3617 160.8 13.5266C160.886 13.6914 161.013 13.8329 161.169 13.9383C161.338 14.0537 161.521 14.1492 161.713 14.2229C162.36 14.4885 163.033 14.6927 163.721 14.8328C164.577 15.0238 165.416 15.2794 166.231 15.5972C166.83 15.8257 167.376 16.1686 167.837 16.6056C168.49 17.2665 168.881 18.1308 168.941 19.0452C169.018 19.6814 168.947 20.3262 168.732 20.9319C168.525 21.5595 168.164 22.1288 167.68 22.5906C167.196 23.0524 166.604 23.393 165.955 23.583C165.315 23.7694 164.655 23.8786 163.989 23.9082C163.509 23.9326 163.029 23.9326 162.549 23.9082C161.624 23.8783 160.719 23.6388 159.906 23.2089C158.906 22.6475 158.16 21.7421 157.814 20.6717C157.654 20.2318 157.541 19.7765 157.479 19.3136V19.1103L160.207 18.8419C160.22 18.9482 160.248 19.0523 160.291 19.151C160.386 19.4635 160.501 19.7704 160.634 20.0699C160.8 20.4382 161.057 20.7609 161.383 21.0091C161.708 21.2574 162.092 21.4237 162.499 21.493C163.218 21.6286 163.96 21.6008 164.666 21.4117C165.133 21.2763 165.537 20.9892 165.812 20.5985C165.967 20.4082 166.075 20.1867 166.13 19.9504C166.185 19.714 166.185 19.4686 166.13 19.2323C166.058 18.9248 165.874 18.6532 165.612 18.4679C165.34 18.2706 165.034 18.1219 164.708 18.0287L162.483 17.4432C161.679 17.2564 160.899 16.9836 160.157 16.63C159.681 16.4081 159.257 16.0959 158.907 15.7118C158.558 15.3277 158.292 14.8795 158.124 14.3937C157.838 13.5101 157.897 12.5552 158.289 11.7109C158.681 10.8666 159.378 10.1919 160.249 9.81533C160.912 9.53461 161.619 9.36417 162.34 9.31114C162.897 9.27129 163.457 9.27129 164.014 9.31114C164.739 9.35538 165.45 9.52616 166.114 9.81533C166.73 10.0865 167.267 10.503 167.676 11.027C168.085 11.551 168.353 12.1659 168.456 12.8161C168.456 13.0194 168.456 13.2145 168.523 13.3853L168.565 13.5236Z" fill="white"/>
<path d="M64.1529 17.3948H57.3427C57.0331 17.3948 57.0331 17.3948 57.0331 17.7038V21.1437C57.0331 21.3144 57.0331 21.3388 57.2339 21.3388H64.9895V23.6402C64.8305 23.6809 54.5065 23.7053 54.2388 23.6402C54.2388 23.5589 54.2388 23.445 54.2388 23.3556V9.75874C54.2277 9.66417 54.2277 9.56869 54.2388 9.47412H64.7134C64.7134 10.2873 64.7134 11.0355 64.7134 11.8243H57.3427C57.0331 11.8243 57.0331 11.7755 57.0331 12.1252V14.882C57.0331 15.0121 57.0331 15.0283 57.2088 15.0527H63.9019C64.2365 15.0527 64.2365 15.0527 64.2365 15.3618V17.0776C64.178 17.224 64.178 17.2891 64.1529 17.3948Z" fill="white"/>
<path d="M155.613 13.3854L152.844 14.0441C152.823 13.9697 152.798 13.8965 152.769 13.8245C152.616 13.2807 152.312 12.7883 151.89 12.4014C151.32 11.8968 150.57 11.6284 149.799 11.6533C149.273 11.6399 148.752 11.7505 148.28 11.9757C147.808 12.2009 147.399 12.5339 147.088 12.9463C146.777 13.3778 146.556 13.8639 146.436 14.3775C146.26 15.1597 146.184 15.96 146.21 16.7602C146.197 17.4796 146.29 18.197 146.486 18.8908C146.638 19.5528 146.98 20.1592 147.473 20.6392C148.037 21.1707 148.787 21.4756 149.573 21.4931C149.954 21.5225 150.338 21.478 150.701 21.3621C151.064 21.2462 151.4 21.0613 151.69 20.8181C152.049 20.5271 152.335 20.1599 152.526 19.7447C152.685 19.4113 152.777 19.0616 152.911 18.7119C152.911 18.6469 152.953 18.5818 152.978 18.4924L155.613 19.3462V19.4113C155.394 20.2921 154.996 21.1215 154.442 21.8509C153.821 22.6773 152.94 23.2852 151.932 23.583C150.624 23.9906 149.221 24.0132 147.9 23.6481C147.074 23.433 146.307 23.0449 145.653 22.511C144.998 21.9772 144.471 21.3106 144.11 20.5579C143.709 19.7762 143.456 18.9304 143.365 18.0614C143.293 17.4297 143.27 16.7935 143.298 16.1584C143.308 15.0039 143.561 13.8635 144.043 12.808C144.442 11.9016 145.071 11.1083 145.872 10.5025C146.672 9.89665 147.617 9.49798 148.619 9.34376C149.715 9.14269 150.845 9.19563 151.916 9.49827C152.75 9.71057 153.513 10.1281 154.133 10.7107C154.753 11.2932 155.208 12.0212 155.454 12.8243C155.454 12.9544 155.538 13.1089 155.588 13.239C155.581 13.2637 155.579 13.2897 155.584 13.315C155.588 13.3404 155.598 13.3644 155.613 13.3854Z" fill="white"/>
<path d="M87.8882 23.6401C87.7962 23.6401 87.7293 23.6401 87.6623 23.6401H85.1524C85.1375 23.6412 85.1224 23.6393 85.1082 23.6345C85.0941 23.6297 85.0811 23.6221 85.0701 23.6121C85.0591 23.6022 85.0503 23.5902 85.0443 23.5768C85.0383 23.5634 85.0353 23.5489 85.0353 23.5343V12.1982C85.0431 12.0791 85.0431 11.9596 85.0353 11.8404H80.8521C80.7804 11.0694 80.7804 10.2937 80.8521 9.52276H92.0296C92.04 9.51775 92.0514 9.51514 92.063 9.51514C92.0746 9.51514 92.0861 9.51775 92.0965 9.52276C92.1509 10.2971 92.1509 11.0742 92.0965 11.8485H88.1978C87.905 11.8485 87.905 11.8485 87.905 12.1332V23.3392C87.887 23.4384 87.8813 23.5395 87.8882 23.6401Z" fill="white"/>
<path d="M140.973 23.64H138.22C138.178 23.4937 138.153 9.8155 138.22 9.53088C138.354 9.49022 140.73 9.46582 140.989 9.53088C140.998 9.68539 141.023 23.3798 140.973 23.64Z" fill="white"/>
</g>
<defs>
<clipPath id="clip0_2_951">
<rect width="169" height="33" fill="white"/>
</clipPath>
</defs>
</svg>
